<?xml version="1.0" encoding="UTF-8" standalone="no"?>
<!DOCTYPE svg PUBLIC "-//W3C//DTD SVG 1.1//EN"
 "http://www.w3.org/Graphics/SVG/1.1/DTD/svg11.dtd">
<!-- Generated by graphviz version 15.1.1 (20260805.0921)
 -->
<!-- Title: shippable Pages: 1 -->
<svg width="413pt" height="213pt"
 viewBox="0.00 0.00 413.00 213.00" xmlns="http://www.w3.org/2000/svg" xmlns:xlink="http://www.w3.org/1999/xlink">
<g id="graph0" class="graph" transform="scale(1 1) rotate(0) translate(4 208.5)">
<title>shippable</title>
<polygon fill="white" stroke="none" points="-4,4 -4,-208.5 408.84,-208.5 408.84,4 -4,4"/>
<text xml:space="preserve" text-anchor="middle" x="202.42" y="-7.2" font-family="Times,serif" font-size="14.00">shippable</text>
<!-- shippable:claim -->
<g id="shippable:claim" class="node">
<title>shippable:claim</title>
<path fill="lightgrey" stroke="black" d="M282.09,-204.5C282.09,-204.5 113.09,-204.5 113.09,-204.5 107.09,-204.5 101.09,-198.5 101.09,-192.5 101.09,-192.5 101.09,-180.5 101.09,-180.5 101.09,-174.5 107.09,-168.5 113.09,-168.5 113.09,-168.5 282.09,-168.5 282.09,-168.5 288.09,-168.5 294.09,-174.5 294.09,-180.5 294.09,-180.5 294.09,-192.5 294.09,-192.5 294.09,-198.5 288.09,-204.5 282.09,-204.5"/>
<text xml:space="preserve" text-anchor="middle" x="197.59" y="-181.45" font-family="Times,serif" font-size="14.00">(R13) The classifier is fit to ship</text>
</g>
<!-- shippable:bar -->
<g id="shippable:bar" class="node">
<title>shippable:bar</title>
<polygon fill="#f0c27f" stroke="black" points="395.17,-114.5 296.38,-132.5 98.79,-132.5 0,-114.5 98.79,-96.5 296.38,-96.5 395.17,-114.5"/>
<text xml:space="preserve" text-anchor="middle" x="197.59" y="-109.45" font-family="Times,serif" font-size="14.00">The measured accuracy clears the 80% bar</text>
</g>
<!-- shippable:bar&#45;&gt;shippable:claim -->
<g id="edge1" class="edge">
<title>shippable:bar&#45;&gt;shippable:claim</title>
<path fill="none" stroke="black" d="M197.59,-132.8C197.59,-140.09 197.59,-148.77 197.59,-156.96"/>
<polygon fill="black" stroke="black" points="194.09,-156.88 197.59,-166.88 201.09,-156.88 194.09,-156.88"/>
</g>
<!-- shippable:model -->
<g id="shippable:model" class="node">
<title>shippable:model</title>
<polygon fill="#9ecae1" stroke="black" points="173.96,-60.5 7.21,-60.5 7.21,-24.5 179.96,-24.5 179.96,-54.5 173.96,-60.5"/>
<polyline fill="none" stroke="black" points="173.96,-60.5 173.96,-54.5"/>
<polyline fill="none" stroke="black" points="179.96,-54.5 173.96,-54.5"/>
<text xml:space="preserve" text-anchor="middle" x="93.59" y="-37.45" font-family="Times,serif" font-size="14.00">The trained model is on disk</text>
</g>
<!-- shippable:model&#45;&gt;shippable:bar -->
<g id="edge2" class="edge">
<title>shippable:model&#45;&gt;shippable:bar</title>
<path fill="none" stroke="black" d="M119.56,-60.98C132.56,-69.74 148.49,-80.46 162.56,-89.92"/>
<polygon fill="black" stroke="black" points="160.44,-92.71 170.69,-95.39 164.34,-86.91 160.44,-92.71"/>
</g>
<!-- shippable:metrics -->
<g id="shippable:metrics" class="node">
<title>shippable:metrics</title>
<polygon fill="#9ecae1" stroke="black" points="398.84,-60.5 198.34,-60.5 198.34,-24.5 404.84,-24.5 404.84,-54.5 398.84,-60.5"/>
<polyline fill="none" stroke="black" points="398.84,-60.5 398.84,-54.5"/>
<polyline fill="none" stroke="black" points="404.84,-54.5 398.84,-54.5"/>
<text xml:space="preserve" text-anchor="middle" x="301.59" y="-37.45" font-family="Times,serif" font-size="14.00">The measurement report is on disk</text>
</g>
<!-- shippable:metrics&#45;&gt;shippable:bar -->
<g id="edge3" class="edge">
<title>shippable:metrics&#45;&gt;shippable:bar</title>
<path fill="none" stroke="black" d="M275.61,-60.98C262.61,-69.74 246.68,-80.46 232.61,-89.92"/>
<polygon fill="black" stroke="black" points="230.83,-86.91 224.49,-95.39 234.74,-92.71 230.83,-86.91"/>
</g>
</g>
</svg>
